<svg width="32" height="27" viewBox="0 0 32 27" fill="none" xmlns="http://www.w3.org/2000/svg">
<path d="M19.8567 6.65509H8.50806C8.50806 6.65509 10.3072 18.3151 14.067 18.3151H25.4502C28.2528 18.3151 30.571 11.5336 30.9977 8.41969C31.0102 8.17868 30.9709 7.93776 30.8822 7.7133C30.7935 7.48884 30.6576 7.28604 30.4837 7.11869C30.3098 6.95135 30.1019 6.82335 29.8742 6.74336C29.6465 6.66337 29.4043 6.63327 29.1639 6.65509H19.8567Z" stroke="#959595" stroke-linecap="round" stroke-linejoin="round"/>
<path d="M1 1.00384H4.45994C5.24481 0.967811 6.0203 1.18634 6.67082 1.62695C7.32134 2.06756 7.81207 2.70665 8.06982 3.44886L8.55421 6.98954" stroke="#959595" stroke-linecap="round" stroke-linejoin="round"/>
<path d="M14.0555 26.8383C15.4568 26.8383 16.5928 25.7023 16.5928 24.301C16.5928 22.8997 15.4568 21.7637 14.0555 21.7637C12.6542 21.7637 11.5182 22.8997 11.5182 24.301C11.5182 25.7023 12.6542 26.8383 14.0555 26.8383Z" fill="#959595"/>
<path d="M25.4503 26.8383C26.8516 26.8383 27.9876 25.7023 27.9876 24.301C27.9876 22.8997 26.8516 21.7637 25.4503 21.7637C24.0489 21.7637 22.913 22.8997 22.913 24.301C22.913 25.7023 24.0489 26.8383 25.4503 26.8383Z" fill="#959595"/>
</svg>
