<svg width="27" height="29" viewBox="0 0 27 29" fill="none" xmlns="http://www.w3.org/2000/svg">
<path d="M1 11.2668V23.8592C1 25.0781 1.48424 26.2472 2.34619 27.1091C3.20815 27.9711 4.3772 28.4553 5.59618 28.4553H20.9714C21.576 28.457 22.1751 28.3393 22.7341 28.1091C23.2932 27.8788 23.8014 27.5406 24.2295 27.1136C24.6577 26.6866 24.9973 26.1794 25.2291 25.621C25.4609 25.0625 25.5802 24.4638 25.5802 23.8592V11.2668H1Z" stroke="#959595" stroke-linecap="round" stroke-linejoin="round"/>
<path d="M13.1642 10.9162V6.5" stroke="#871A1F" stroke-linecap="round" stroke-linejoin="round"/>
<path d="M21.0596 10.9162V7" stroke="#871A1F" stroke-linecap="round" stroke-linejoin="round"/>
<path d="M5.2688 10.9162V7" stroke="#871A1F" stroke-linecap="round" stroke-linejoin="round"/>
<path fill-rule="evenodd" clip-rule="evenodd" d="M15.7708 1.62122C15.7708 0.223474 14.5997 1.62122 13.1642 1.62122C11.7287 1.62122 10.5702 0.223474 10.5702 1.62122C10.5702 3.01897 11.7413 5.99079 13.1642 5.99079C14.5871 5.99079 15.7708 2.98119 15.7708 1.62122Z" fill="#959595" stroke="#959595" stroke-linecap="round" stroke-linejoin="round"/>
<path fill-rule="evenodd" clip-rule="evenodd" d="M7.8754 4.76941C7.8754 3.37167 6.70433 4.76941 5.2688 4.76941C3.83328 4.76941 2.67479 3.37167 2.67479 4.76941C2.6162 5.1448 2.63958 5.52842 2.74333 5.89391C2.84708 6.25941 3.02873 6.59813 3.2758 6.88676C3.52287 7.17538 3.8295 7.40708 4.17462 7.56595C4.51975 7.72481 4.89516 7.80705 5.27509 7.80705C5.65502 7.80705 6.03045 7.72481 6.37557 7.56595C6.72069 7.40708 7.02733 7.17538 7.2744 6.88676C7.52147 6.59813 7.70312 6.25941 7.80686 5.89391C7.91061 5.52842 7.93399 5.1448 7.8754 4.76941Z" fill="#959595" stroke="#959595" stroke-linecap="round" stroke-linejoin="round"/>
<path fill-rule="evenodd" clip-rule="evenodd" d="M23.6662 4.76941C23.6662 3.37167 22.5077 4.76941 21.0722 4.76941C19.6366 4.76941 18.4656 3.37167 18.4656 4.76941C18.407 5.1448 18.4304 5.52842 18.5341 5.89391C18.6378 6.25941 18.8195 6.59813 19.0666 6.88676C19.3136 7.17538 19.6203 7.40708 19.9654 7.56595C20.3105 7.72481 20.6859 7.80705 21.0659 7.80705C21.4458 7.80705 21.8212 7.72481 22.1664 7.56595C22.5115 7.40708 22.8181 7.17538 23.0652 6.88676C23.3123 6.59813 23.4939 6.25941 23.5977 5.89391C23.7014 5.52842 23.7248 5.1448 23.6662 4.76941Z" fill="#959595" stroke="#959595" stroke-linecap="round" stroke-linejoin="round"/>
<path d="M7.5354 15.1201C7.5354 16.6464 8.14171 18.11 9.22092 19.1893C10.3001 20.2685 11.7639 20.8748 13.2901 20.8748C14.8163 20.8748 16.2801 20.2685 17.3593 19.1893C18.4385 18.11 19.0448 16.6464 19.0448 15.1201" stroke="#959595" stroke-linecap="round" stroke-linejoin="round"/>
</svg>
