<svg width="21" height="23" viewBox="0 0 21 23" fill="none" xmlns="http://www.w3.org/2000/svg">
<path d="M17 11C17.6111 16.6453 19.9033 17.8029 19.9033 17.8029H1C1 17.8029 4.15055 15.5626 4.15055 7.72118C4.15055 5.93861 4.81442 4.22905 5.99611 2.96859C7.17779 1.70812 8.7805 1 10.4517 1C10.8059 1 11.1571 1.03182 11.5018 1.09398" stroke="#1D1D1D" stroke-linecap="round" stroke-linejoin="round"/>
<path d="M16 9C18.2092 9 20 7.20913 20 5C20 2.79087 18.2092 1 16 1C13.7908 1 12 2.79087 12 5C12 7.20913 13.7908 9 16 9Z" fill="#E5E5E5"/>
<path d="M12.2684 20.9536C12.0838 21.2719 11.8188 21.5362 11.4999 21.7197C11.181 21.9034 10.8196 22.0001 10.4516 22.0001C10.0836 22.0001 9.72213 21.9034 9.40329 21.7197C9.08445 21.5362 8.81939 21.2719 8.63477 20.9536" stroke="#1D1D1D" stroke-linecap="round" stroke-linejoin="round"/>
</svg>
