<svg width="26" height="27" viewBox="0 0 26 27" fill="none" xmlns="http://www.w3.org/2000/svg">
<path d="M12.9817 11.9C15.9917 11.9 18.4317 9.45994 18.4317 6.44999C18.4317 3.44004 15.9917 1 12.9817 1C9.97177 1 7.53174 3.44004 7.53174 6.44999C7.53174 9.45994 9.97177 11.9 12.9817 11.9Z" stroke="#959595" stroke-linecap="round" stroke-linejoin="round"/>
<path d="M24.3506 21.9206C20.0844 15.6853 5.92611 15.6853 1.64817 21.9206C1.29905 22.3553 1.08065 22.8802 1.0184 23.4343C0.956149 23.9883 1.05258 24.5486 1.29653 25.0499C1.63238 25.5521 2.10309 25.9494 2.65456 26.1961C3.20604 26.4428 3.81593 26.529 4.41416 26.4446H21.5846C22.1844 26.5271 22.7952 26.4402 23.3482 26.1937C23.9012 25.9472 24.3742 25.551 24.7139 25.0499C24.9521 24.5465 25.0444 23.9865 24.9801 23.4333C24.9159 22.8801 24.6978 22.356 24.3506 21.9206Z" stroke="#959595" stroke-linecap="round" stroke-linejoin="round"/>
</svg>
