<svg width="27" height="27" viewBox="0 0 27 27" fill="none" xmlns="http://www.w3.org/2000/svg">
<path d="M0.756104 8.5V21.3127C0.756104 22.5558 1.24995 23.7481 2.129 24.6271C3.00805 25.5062 4.20029 26 5.44346 26H21.1237C21.7403 26.0017 22.3512 25.8817 22.9214 25.6469C23.4916 25.4121 24.0098 25.0671 24.4464 24.6317C24.8831 24.1962 25.2295 23.679 25.4658 23.1094C25.7022 22.5399 25.8239 21.9293 25.8239 21.3127V8.5H0.756104Z" stroke="#959595" stroke-linecap="round" stroke-linejoin="round"/>
<path d="M25.824 8.5L25.824 5.68732C25.824 4.44416 25.3301 3.25192 24.4511 2.37287C23.572 1.49381 22.3798 1.00001 21.1366 1.00001L5.45641 1C4.83978 0.998314 4.22888 1.11831 3.6587 1.35312C3.08852 1.58792 2.57027 1.93289 2.13364 2.36832C1.69702 2.80375 1.35061 3.32104 1.11425 3.89057C0.877882 4.46011 0.756216 5.07069 0.756218 5.68732L0.75622 8.5L25.824 8.5Z" stroke="#959595" stroke-linecap="round" stroke-linejoin="round"/>
<path d="M7.42114 12.4004C7.42114 13.9569 8.03948 15.4496 9.1401 16.5502C10.2407 17.6509 11.7335 18.2692 13.29 18.2692C14.8465 18.2692 16.3393 17.6509 17.4399 16.5502C18.5405 15.4496 19.1588 13.9569 19.1588 12.4004" stroke="#959595" stroke-linecap="round" stroke-linejoin="round"/>
</svg>
